<svg xmlns="http://www.w3.org/2000/svg" width="16" height="16" fill="none" viewBox="0 0 16 16"><g fill="#000" clip-path="url(#a)"><path d="M3.325 7.618a.679.679 0 0 1 .681-.679l1.13.004a.679.679 0 0 1 .679.68v4.272c.127-.038.29-.078.469-.12a.566.566 0 0 0 .436-.551v-5.3a.68.68 0 0 1 .68-.679h1.13a.679.679 0 0 1 .68.68v4.918s.283-.115.56-.231a.567.567 0 0 0 .345-.522V4.226a.68.68 0 0 1 .68-.679h1.13a.68.68 0 0 1 .68.68v4.828c.98-.712 1.975-1.567 2.764-2.596a1.142 1.142 0 0 0 .174-1.064A7.987 7.987 0 0 0 8.1 0C3.665-.06 0 3.563 0 8a7.977 7.977 0 0 0 1.062 4.001 1.011 1.011 0 0 0 .964.5c.215-.019.481-.045.798-.083a.565.565 0 0 0 .502-.561v-4.24M3.3 14.47a7.994 7.994 0 0 0 12.68-7.017C13.057 11.81 7.662 13.849 3.3 14.47"/></g><defs><clipPath id="a"><path fill="#fff" d="M0 0h16v16H0z"/></clipPath></defs></svg>