<svg xmlns="http://www.w3.org/2000/svg" width="49" height="54" fill="none" viewBox="0 0 49 54"><path fill="#000" d="m21.73 23.64 3.055-3.026 3.055 3.026-3.055 3.025-3.055-3.025Z"/><path fill="#000" fill-rule="evenodd" d="M7.741 23.64 24.787 6.76l17.046 16.88-17.046 16.879L7.74 23.639Zm8.856 0 8.19 8.11 8.19-8.11-8.19-8.11-8.19 8.11Z" clip-rule="evenodd"/><path fill="#000" fill-rule="evenodd" d="M.885 23.668 24.785 0l23.901 23.668-23.9 23.667L.884 23.667Zm1.771 0 22.13 21.913 22.129-21.914-22.13-21.913L2.656 23.667Z" clip-rule="evenodd"/><path fill="#000" fill-rule="evenodd" d="m5.037 26.025-4.25 4.21 4.25 4.209L20.535 49.79 24.786 54l4.251-4.21 15.498-15.347 4.251-4.21-4.25-4.21-4.252 4.21-4.25 4.21-6.997 6.928-4.25 4.21-4.252-4.21-6.996-6.928-4.251-4.21-4.251-4.21Z" clip-rule="evenodd"/></svg>