<svg xmlns="http://www.w3.org/2000/svg" width="16" height="16" fill="none" viewBox="0 0 48 48"><path fill="#29296E" fill-rule="evenodd" d="M47.216 24c0 13.198-10.57 23.897-23.608 23.897S0 37.198 0 24C0 10.802 10.57.103 23.608.103 36.647.103 47.216 10.802 47.216 24Z" clip-rule="evenodd"/><path fill="#FAFAFA" fill-rule="evenodd" d="m34.594 17.61-.6-1.877a1.218 1.218 0 0 0-.799-.796l-1.864-.58c-.258-.08-.26-.448-.004-.532l1.855-.608c.377-.123.67-.425.787-.808l.572-1.886a.275.275 0 0 1 .526-.004l.6 1.878c.122.38.42.678.799.796l1.864.58c.258.08.26.447.004.531l-1.856.608c-.376.123-.67.426-.786.809l-.572 1.886a.275.275 0 0 1-.526.004Z" clip-rule="evenodd"/><path fill="#FF4F0A" fill-rule="evenodd" d="M2.147 23.622c.56-1.113 1.67-1.952 2.824-2.482a11.418 11.418 0 0 1 3.704-.95c2.54-.233 5.013.197 7.266.94 1.161.35 2.2.837 3.273 1.328.522.254 1.012.542 1.517.82l1.394.818c1.531.95 3.016 1.791 4.41 2.445 1.398.648 2.661 1.086 3.852 1.31 1.191.226 2.401.223 3.89-.122 1.477-.339 3.138-1.068 4.875-2.003 1.747-.936 3.54-2.083 5.584-3.205-.205 2.344-.86 4.542-1.884 6.664-1.049 2.097-2.508 4.142-4.634 5.799-2.086 1.67-4.951 2.834-7.868 3.009-2.918.2-5.693-.451-8.055-1.43-2.37-.993-4.419-2.298-6.234-3.739-.502-.398-.77-.624-1.141-.94l-1.034-.917c-.697-.552-1.372-1.212-2.061-1.76-1.376-1.163-2.737-2.329-4.229-3.34a18.096 18.096 0 0 0-2.408-1.412 10.334 10.334 0 0 0-1.4-.543 5.706 5.706 0 0 0-1.641-.29Z" clip-rule="evenodd"/><path fill="#FAFAFA" fill-rule="evenodd" d="M2.147 23.622c.286-2.412 1.397-4.674 3.177-6.6 1.77-1.906 4.537-3.376 7.607-3.571a13.365 13.365 0 0 1 4.468.465 17.43 17.43 0 0 1 3.915 1.65c.594.34 1.15.713 1.703 1.089l1.476 1.13 2.303 1.84c1.495 1.205 2.921 2.32 4.24 3.24 1.33.921 2.464 1.595 3.547 1.989 1.073.43 2.429.54 4.22.085.89-.208 1.818-.587 2.808-.997.985-.421 2.007-.923 3.125-1.42-.135 1.212-.378 2.42-.84 3.548-.445 1.144-1.03 2.264-1.848 3.307a13.65 13.65 0 0 1-1.39 1.49 11.71 11.71 0 0 1-1.742 1.281 11.569 11.569 0 0 1-4.344 1.49 13.603 13.603 0 0 1-4.533-.205c-1.428-.297-2.73-.775-3.924-1.326-2.38-1.121-4.371-2.53-6.132-4.021a38.506 38.506 0 0 1-2.498-2.312l-.927-.943c-.28-.273-.562-.547-.842-.799-1.127-1.008-2.172-1.779-3.324-2.26-1.144-.503-2.607-.71-4.403-.37-1.788.337-3.75 1.12-5.842 2.22Zm9.434 12.436c0 .713-.572 1.292-1.276 1.292a1.284 1.284 0 0 1-1.276-1.292c0-.714.57-1.293 1.276-1.293.704 0 1.276.58 1.276 1.293Z" clip-rule="evenodd"/></svg>