<svg xmlns="http://www.w3.org/2000/svg" width="18" height="14" fill="none" viewBox="0 0 18 14"><g clip-path="url(#a)"><g clip-path="url(#b)"><path fill="#000" d="M17.215 2.088c-.6.26-1.235.433-1.885.51A3.25 3.25 0 0 0 16.774.811a6.592 6.592 0 0 1-2.085.784A3.304 3.304 0 0 0 12.292.57C10.478.57 9.01 2.017 9.01 3.8a3.1 3.1 0 0 0 .085.737A9.357 9.357 0 0 1 2.328 1.16a3.19 3.19 0 0 0-.446 1.624c0 1.12.584 2.11 1.466 2.69a3.25 3.25 0 0 1-1.492-.404v.04c0 1.567 1.133 2.87 2.633 3.167a3.359 3.359 0 0 1-.865.113c-.207 0-.414-.02-.617-.06a3.28 3.28 0 0 0 3.069 2.244 6.654 6.654 0 0 1-4.861 1.336 9.29 9.29 0 0 0 5.025 1.46c6.045 0 9.348-4.923 9.348-9.193 0-.14-.004-.28-.01-.417a6.615 6.615 0 0 0 1.637-1.673Z"/></g></g><defs><clipPath id="a"><path fill="#fff" d="M.5.5h17v13H.5z"/></clipPath><clipPath id="b"><path fill="#fff" d="M.5.5h17v13H.5z"/></clipPath></defs></svg>