<svg xmlns="http://www.w3.org/2000/svg" width="16" height="16" fill="none" viewBox="0 0 16 16"><path fill="#000" d="M14.5 2.079A1.562 1.562 0 0 0 12.941.53L3.051.5A1.552 1.552 0 0 0 1.5 2.047V12.25c0 .853.696 1.5 1.551 1.5H11.5l-.406-1.375L14.5 15.5V2.079Zm-4.355 8.228s-.272-.325-.5-.604c.992-.28 1.37-.89 1.37-.89-.272.18-.564.33-.87.445a5.314 5.314 0 0 1-3.057.317 5.76 5.76 0 0 1-1.112-.325 4.42 4.42 0 0 1-.553-.257c-.022-.015-.045-.022-.068-.037-.015-.008-.023-.015-.03-.015-.137-.076-.213-.129-.213-.129s.363.597 1.325.883c-.228.287-.508.62-.508.62-1.672-.053-2.307-1.14-2.307-1.14 0-2.408 1.09-4.363 1.09-4.363C5.8 4.004 6.83 4.027 6.83 4.027l.076.09c-1.363.385-1.983.981-1.983.981s.166-.09.446-.211a5.931 5.931 0 0 1 1.72-.475.75.75 0 0 1 .128-.016 6.425 6.425 0 0 1 1.528-.015 6.3 6.3 0 0 1 2.278.717s-.598-.567-1.884-.951l.106-.12s1.036-.024 2.119.785c0 0 1.09 1.955 1.09 4.364 0-.01-.636 1.078-2.309 1.13Z"/><path fill="#000" d="M6.627 6.813c-.43 0-.772.37-.772.83 0 .46.349.83.772.83.432 0 .772-.37.772-.83.008-.461-.34-.83-.772-.83Zm2.762 0c-.431 0-.772.37-.772.83 0 .46.348.83.772.83.432 0 .772-.37.772-.83 0-.46-.348-.83-.772-.83Z"/></svg>