<svg width="16" height="16" viewBox="0 0 16 16" fill="none" xmlns="http://www.w3.org/2000/svg">
<g clip-path="url(#clip0_699_455)">
<path d="M7.99991 0.380859C3.79267 0.380859 0.380859 3.79267 0.380859 7.99991C0.380859 12.2071 3.79267 15.619 7.99991 15.619C12.2071 15.619 15.619 12.2071 15.619 7.99991C15.619 3.79267 12.2087 0.380859 7.99991 0.380859ZM4.1401 8.25591L4.1721 8.2041L6.15457 5.10315C6.18353 5.05895 6.2521 5.06353 6.27343 5.11229C6.6041 5.85438 6.89057 6.77781 6.75648 7.35229C6.7001 7.58848 6.54315 7.90848 6.36638 8.2041C6.34353 8.24676 6.31914 8.28943 6.29172 8.33057C6.27953 8.34886 6.25819 8.35953 6.23534 8.35953H4.198C4.14315 8.35953 4.11114 8.3001 4.1401 8.25591ZM12.9736 9.32257C12.9736 9.35153 12.9569 9.37591 12.9325 9.38657C12.7786 9.4521 12.2529 9.69438 12.035 9.99762C11.4772 10.7732 11.0521 11.8826 10.0997 11.8826H6.12867C4.72067 11.8826 3.58086 10.7382 3.58086 9.32562V9.27991C3.58086 9.24334 3.61134 9.21286 3.64943 9.21286H5.862C5.90619 9.21286 5.93819 9.25248 5.93514 9.29667C5.91838 9.43991 5.94581 9.58772 6.01438 9.72181C6.14543 9.98848 6.41819 10.1546 6.71229 10.1546H7.80791V9.29972H6.72448C6.66962 9.29972 6.6361 9.23572 6.6681 9.19C6.68029 9.17172 6.69248 9.15343 6.70772 9.1321C6.80981 8.98581 6.9561 8.76029 7.10238 8.50276C7.20143 8.32905 7.29743 8.14315 7.37514 7.95724C7.39038 7.92372 7.40257 7.88867 7.41629 7.85514C7.43762 7.79572 7.45895 7.73934 7.47419 7.68448C7.48943 7.63724 7.50314 7.58848 7.51534 7.54276C7.55191 7.38429 7.56714 7.21667 7.56714 7.04295C7.56714 6.97438 7.5641 6.90276 7.558 6.83572C7.55495 6.76105 7.54581 6.68638 7.53667 6.61172C7.53057 6.54619 7.51838 6.48067 7.50619 6.41362C7.48943 6.31457 7.4681 6.21553 7.44372 6.11648L7.43457 6.07838C7.41629 6.00981 7.39953 5.94581 7.37819 5.87724C7.31572 5.66391 7.24562 5.45514 7.16943 5.2601C7.142 5.18238 7.11153 5.10772 7.07953 5.03457C7.03381 4.92181 6.98657 4.81972 6.94391 4.72372C6.92105 4.67953 6.90276 4.63991 6.88448 4.59876C6.86314 4.55305 6.84181 4.50734 6.81895 4.46314C6.80372 4.42962 6.78543 4.39762 6.77324 4.36715L6.63914 4.12029C6.62086 4.08676 6.65134 4.04562 6.68791 4.05629L7.526 4.28334H7.52905C7.53057 4.28334 7.53057 4.28334 7.5321 4.28334L7.64181 4.31534L7.76372 4.34886L7.80791 4.36105V3.86429C7.80791 3.62353 7.99991 3.42848 8.23914 3.42848C8.358 3.42848 8.46619 3.47724 8.54238 3.55648C8.6201 3.63572 8.66886 3.74391 8.66886 3.86429V4.60334L8.75876 4.62772C8.76486 4.63076 8.77248 4.63381 8.77857 4.63838C8.79991 4.65362 8.83191 4.678 8.87153 4.70848C8.90353 4.73286 8.93705 4.76334 8.97667 4.79534C9.05743 4.86086 9.15495 4.94467 9.2601 5.04067C9.28753 5.06505 9.31495 5.08943 9.34086 5.11534C9.47648 5.24181 9.62886 5.38962 9.77514 5.55419C9.81629 5.60143 9.85591 5.64714 9.89705 5.69743C9.93667 5.74772 9.98086 5.79648 10.0174 5.84524C10.0677 5.91076 10.1195 5.97934 10.1668 6.05095C10.1881 6.08448 10.214 6.11953 10.2338 6.15305C10.2948 6.24295 10.3466 6.33591 10.3969 6.42886C10.4182 6.47153 10.4395 6.51876 10.4578 6.56448C10.5142 6.68943 10.5584 6.81591 10.5858 6.94391C10.595 6.97134 10.601 7.00029 10.6041 7.02772V7.03381C10.6132 7.07038 10.6163 7.11 10.6193 7.15114C10.6315 7.28067 10.6254 7.41172 10.598 7.54276C10.5858 7.59762 10.5706 7.64943 10.5523 7.70581C10.5325 7.75914 10.5142 7.814 10.4898 7.86734C10.4426 7.97553 10.3877 8.08524 10.3222 8.18581C10.3009 8.22391 10.275 8.26353 10.2506 8.30162C10.2231 8.34124 10.1942 8.37934 10.1698 8.41591C10.1348 8.46315 10.0982 8.51191 10.0601 8.5561C10.0266 8.60181 9.99305 8.64753 9.95495 8.68867C9.90314 8.75115 9.85286 8.80905 9.79953 8.86543C9.76905 8.902 9.73553 8.9401 9.70048 8.97362C9.66695 9.01172 9.63191 9.04524 9.60143 9.07572C9.5481 9.12905 9.50543 9.16867 9.46886 9.20372L9.382 9.28143C9.36981 9.29362 9.35305 9.29972 9.33629 9.29972H8.66886V10.1546H9.50848C9.69591 10.1546 9.87419 10.089 10.019 9.96562C10.0677 9.92295 10.2826 9.73705 10.537 9.45667C10.5462 9.446 10.5569 9.43991 10.569 9.43686L12.8868 8.76638C12.931 8.75419 12.9736 8.78619 12.9736 8.83191V9.32257Z" fill="black"/>
</g>
<defs>
<clipPath id="clip0_699_455">
<rect width="15.2381" height="15.2381" fill="white" transform="translate(0.380859 0.380859)"/>
</clipPath>
</defs>
</svg>
