<svg xmlns="http://www.w3.org/2000/svg" width="16" height="16" fill="none" viewBox="0 0 16 16"><g clip-path="url(#a)"><path fill="#000" d="M8 .38a7.62 7.62 0 1 0 .002 15.24A7.62 7.62 0 0 0 8 .38ZM4.14 8.257l.032-.052 1.983-3.1c.029-.045.097-.04.118.008.331.742.618 1.666.483 2.24-.056.236-.213.556-.39.852a1.528 1.528 0 0 1-.074.127.067.067 0 0 1-.057.029H4.198a.067.067 0 0 1-.058-.104Zm8.834 1.067a.07.07 0 0 1-.042.064c-.153.065-.68.307-.897.61-.558.776-.983 1.886-1.935 1.886H6.129A2.552 2.552 0 0 1 3.58 9.326V9.28c0-.037.03-.067.068-.067h2.213c.044 0 .076.04.073.084a.745.745 0 0 0 .08.425.778.778 0 0 0 .697.433h1.096V9.3H6.724a.07.07 0 0 1-.056-.11c.012-.018.024-.037.04-.058a8.22 8.22 0 0 0 .394-.63c.1-.173.195-.359.273-.545.015-.033.028-.068.041-.102.022-.06.043-.116.058-.17.015-.048.03-.097.041-.142.037-.159.052-.326.052-.5 0-.069-.003-.14-.009-.207a2.784 2.784 0 0 0-.021-.224c-.006-.066-.019-.131-.03-.198a4.123 4.123 0 0 0-.063-.298l-.01-.038c-.018-.068-.034-.132-.056-.2a7.505 7.505 0 0 0-.298-.843c-.046-.113-.093-.215-.136-.311a2.254 2.254 0 0 1-.06-.125 2.123 2.123 0 0 0-.065-.136c-.015-.033-.034-.065-.046-.096L6.64 4.12c-.018-.033.012-.074.049-.064l.838.227h.006l.11.032.122.034.044.012v-.497c0-.24.192-.436.431-.436a.438.438 0 0 1 .43.436v.74l.09.024.02.01.093.07c.032.025.065.055.105.087a6.575 6.575 0 0 1 .364.32 6.745 6.745 0 0 1 .556.582c.04.05.084.1.12.148.05.066.103.134.15.206.021.033.047.069.067.102.06.09.113.183.163.276.021.043.043.09.06.135a1.894 1.894 0 0 1 .147.464v.006c.01.036.012.076.015.117a1.307 1.307 0 0 1-.067.555c-.02.053-.038.108-.062.161a2.19 2.19 0 0 1-.168.319c-.021.038-.047.078-.071.116-.028.04-.057.077-.081.114a2.445 2.445 0 0 1-.11.14 3.573 3.573 0 0 1-.26.31 1.437 1.437 0 0 1-.1.108c-.033.038-.068.071-.099.102-.053.053-.096.093-.132.128l-.087.077a.065.065 0 0 1-.046.019H8.67v.855h.84a.781.781 0 0 0 .51-.19 5.96 5.96 0 0 0 .518-.508.06.06 0 0 1 .032-.02l2.318-.67a.068.068 0 0 1 .087.065v.49Z"/></g><defs><clipPath id="a"><path fill="#fff" d="M.38.38h15.24v15.24H.38z"/></clipPath></defs></svg>